<svg width="125" height="33" viewBox="0 0 125 33" fill="none" xmlns="http://www.w3.org/2000/svg">
<path d="M15.655 0.481689C7.04934 0.481689 0 7.5928 0 16.4817C0 25.277 6.95779 32.4817 15.655 32.4817C24.2607 32.4817 31.3101 25.3706 31.3101 16.4817C31.3101 7.68637 24.2607 0.481689 15.655 0.481689ZM15.655 31.1717C7.69019 31.1717 1.28169 24.622 1.28169 16.4817C1.28169 8.34134 7.69019 1.79163 15.655 1.79163C23.6199 1.79163 30.0284 8.34134 30.0284 16.4817C30.1199 24.622 23.6199 31.1717 15.655 31.1717Z" fill="white"/>
<path d="M15.6551 28.4583C16.2044 28.4583 16.4791 28.084 16.5706 27.6162C16.6622 27.8033 16.8453 27.9905 17.0284 28.084C17.2115 28.084 17.4861 28.084 17.6692 27.9905C17.8523 27.8969 18.0354 27.7098 18.127 27.5226C18.2185 27.3355 18.2185 27.0548 18.127 26.8677C18.4016 27.2419 18.7678 27.3355 19.2256 27.1484C19.7749 26.8677 19.958 26.4934 19.6833 25.932C19.0425 24.3413 18.4016 22.8443 17.7608 21.2536C17.6692 21.0665 17.6692 20.9729 17.5777 20.7858C17.4861 20.6922 17.4861 20.5986 17.3946 20.5051C17.3946 20.4115 17.303 20.4115 17.2115 20.3179C18.2185 20.4115 18.6763 20.7858 18.9509 20.9729C19.0425 21.0665 19.0425 21.0665 19.3171 20.9729C19.4087 20.9729 19.5918 20.9729 19.6833 20.9729C19.7749 21.0665 19.958 21.16 20.0495 21.16C20.4157 21.4408 20.7819 21.7215 21.1481 22.0022C21.3312 22.1893 21.5143 22.3764 21.5143 22.6571C21.5143 22.8443 20.965 23.3121 20.8735 23.4992C20.5073 23.8735 21.0566 24.4349 21.789 24.4349C21.6059 24.2478 21.5143 24.0606 21.6059 23.8735C21.6974 23.8735 21.789 23.8735 21.9721 23.7799C22.1552 23.6864 22.0636 23.2185 22.1552 23.125C22.4298 22.8443 23.1622 22.8443 23.7115 22.8443C23.8946 22.8443 24.1693 22.7507 24.0777 22.47C24.3524 22.47 24.4439 22.7507 24.4439 22.9378C24.7186 22.7507 24.9017 22.0957 23.9862 21.9086C24.1693 21.7215 24.4439 21.7215 24.627 21.9086C24.8101 21.6279 24.3524 21.1601 23.62 21.4408C23.62 21.4408 23.2538 20.9729 22.3383 22.0957C22.2467 22.0022 22.0636 21.9086 21.9721 21.815C21.6059 21.4407 20.6904 20.5051 20.6904 20.5051C20.6904 19.9437 20.5988 18.9144 19.958 18.353C19.6833 18.0723 19.4087 17.9788 18.7678 17.7916C18.7678 17.7916 19.0425 17.3238 19.134 17.1367C19.6833 17.6981 20.7819 17.8852 20.7819 16.9495C21.6974 17.8852 22.5214 17.3238 22.5214 16.7624C22.5214 17.0431 22.6129 17.3238 22.7045 17.6045C22.796 17.8852 23.2538 19.1016 24.2608 19.1016C24.2608 19.4758 24.2608 20.8793 25.5425 21.16C25.6341 21.16 25.6341 21.16 25.7256 21.2536C26.2749 21.9086 28.3806 22.5636 28.5637 22.3764C28.3806 22.2829 28.1059 22.0957 28.1059 21.3472C28.1059 20.8793 28.0144 18.2595 28.0144 14.6103C28.0144 13.3004 27.9228 9.08987 23.8031 8.52847C23.1622 8.4349 22.6129 8.52847 22.0636 8.90274C21.3312 9.46414 20.965 10.3998 21.4228 11.4291V11.5226C21.6059 11.8033 21.5143 11.9905 21.3312 12.1776C20.965 12.5519 20.5988 12.739 20.1411 12.8326C19.8664 12.8326 19.5918 12.739 19.4087 12.5519C18.9509 12.084 18.6763 11.5226 18.4932 10.8677C18.3101 9.65128 18.5847 8.99631 18.5847 8.90274C18.9509 8.24777 19.5918 7.68636 20.4157 7.68636C20.7819 6.93782 21.8805 7.21853 21.8805 7.21853C22.1552 7.31209 22.2467 7.3121 22.3383 7.49923C22.3383 7.49923 22.796 6.75069 22.3383 6.46999C21.8805 6.18929 20.8735 6.09572 20.8735 6.09572C20.8735 5.62789 20.1411 5.25362 18.6763 5.53432C17.0284 5.81502 16.6622 5.16005 16.6622 5.16005C16.5706 6.00215 17.2115 6.37642 17.3946 6.56356C16.7537 7.3121 15.8382 8.71561 15.6551 10.6805C15.472 8.71561 14.5565 7.3121 13.9157 6.56356C14.0988 6.46999 14.7396 6.00215 14.6481 5.16005C14.6481 5.16005 14.2819 5.81502 12.634 5.53432C11.2607 5.25362 10.4368 5.62789 10.4368 6.09572C10.4368 6.09572 9.42972 6.18929 8.97197 6.46999C8.51422 6.75069 8.97197 7.49923 8.97197 7.49923C9.06352 7.40566 9.15507 7.31209 9.42972 7.21853C9.42972 7.21853 10.5283 6.93782 10.8945 7.68636C11.7185 7.77993 12.3593 8.24777 12.7255 8.90274C12.7255 8.90274 13.0917 9.55771 12.8171 10.8677C12.7255 11.5226 12.3593 12.084 11.9016 12.5519C11.7185 12.739 11.4438 12.9261 11.1692 12.8326C10.7114 12.739 10.3452 12.5519 9.97902 12.1776C9.79592 11.9905 9.70437 11.8033 9.88747 11.5226V11.4291C10.3452 10.3998 9.97902 9.46414 9.24662 8.90274C8.69732 8.52847 8.14802 8.4349 7.50717 8.52847C3.47898 9.08987 3.29588 13.3004 3.29588 14.6103C3.29588 18.2595 3.20433 20.8793 3.20433 21.3472C3.20433 22.0957 2.92968 22.2829 2.74658 22.3764C3.02123 22.5636 5.12688 21.9086 5.58463 21.2536C5.58463 21.2536 5.67617 21.16 5.76772 21.16C7.04942 20.8793 7.04942 19.4758 7.04942 19.1016C8.05647 19.1016 8.51422 17.8852 8.60577 17.6045C8.69732 17.3238 8.78887 17.0431 8.78887 16.7624C8.78887 17.3238 9.61282 17.7916 10.5283 16.9495C10.5283 17.8852 11.6269 17.6981 12.1762 17.1367C12.2678 17.3238 12.5424 17.7916 12.5424 17.7916C11.9016 17.8852 11.6269 18.0723 11.3523 18.353C10.6199 19.008 10.6199 20.0372 10.6199 20.5051C10.6199 20.5051 9.70437 21.4407 9.33817 21.815C9.24662 21.9086 9.06352 22.0022 8.97197 22.0957C7.96492 20.9729 7.69027 21.4408 7.69027 21.4408C6.95787 21.1601 6.59167 21.6279 6.68322 21.9086C6.86632 21.7215 7.14098 21.815 7.32408 21.9086C6.31703 22.0957 6.59168 22.8443 6.86633 22.9378C6.86633 22.7507 6.95787 22.47 7.23252 22.47C7.23252 22.7507 7.41562 22.8443 7.59872 22.8443C8.05647 22.8443 8.88042 22.8443 9.15508 23.125C9.33817 23.2185 9.24662 23.6864 9.33817 23.7799C9.42972 23.8735 9.61282 23.8735 9.70437 23.8735C9.70437 24.0606 9.70437 24.1542 9.52127 24.4349C10.2537 24.5285 10.7114 23.8735 10.4368 23.4992C10.2537 23.3121 9.79592 22.8443 9.79592 22.6571C9.79592 22.47 9.97902 22.1893 10.1621 22.0022C10.5283 21.7215 10.8945 21.4408 11.2607 21.16C11.3523 21.0665 11.4438 20.9729 11.6269 20.9729C11.7185 20.8794 11.9016 20.8794 11.9931 20.9729C12.2678 21.0665 12.2678 21.0665 12.3593 20.9729C12.634 20.7858 13.0917 20.4115 14.0988 20.3179C14.0072 20.3179 14.0072 20.4115 13.9157 20.5051C13.8241 20.5986 13.8241 20.6922 13.7326 20.7858C13.641 20.8793 13.641 21.0665 13.5495 21.2536C12.9086 22.8443 12.2678 24.3413 11.6269 25.932C11.4438 26.4934 11.6269 26.8677 12.0847 27.1484C12.4509 27.3355 12.9086 27.2419 13.1833 26.8677C13.0917 27.1484 13.0917 27.3355 13.1833 27.5226C13.2748 27.7098 13.4579 27.8969 13.641 27.9905C13.8241 28.084 14.0988 28.084 14.2819 28.084C14.5565 27.9905 14.6481 27.8969 14.7396 27.6162C14.8312 28.084 15.1058 28.4583 15.6551 28.4583Z" fill="white"/>
<path d="M42.0214 10.8677C42.8453 10.8677 44.6763 10.7741 45.6834 10.6805C45.6834 10.8677 45.6834 11.1484 45.6834 11.2419C45.6834 11.3355 45.6834 11.6162 45.6834 11.8033C44.7679 11.7098 43.3031 11.6162 42.8454 11.6162C42.4792 11.6162 41.289 11.6162 40.5566 11.7098V15.6396H41.3805C43.0284 15.6396 46.3242 15.9203 46.3242 18.8209C46.3242 21.1601 44.4017 22.1893 41.9299 22.1893C41.6552 22.1893 40.6481 22.1893 39.9157 22.1893C39.6411 22.1893 39.2749 22.1893 39.0002 22.1893C39.0918 20.4115 39.0918 18.0723 39.0918 16.1074C39.0918 14.3296 39.0918 11.6162 39.0002 10.7741C40.0073 10.7741 41.6552 10.8677 42.0214 10.8677ZM40.5566 21.3472C40.9228 21.3472 41.4721 21.3472 41.8383 21.3472C43.6693 21.3472 44.6763 20.5051 44.6763 18.8209C44.6763 17.0431 43.3946 16.4817 40.465 16.4817V21.3472H40.5566Z" fill="white"/>
<path d="M48.0637 15.1718C48.7045 14.4232 49.8031 14.049 50.7186 14.049C52.3665 14.049 53.4651 14.8911 53.4651 16.856V20.7858C53.4651 21.6279 53.6482 21.815 53.9229 21.815C54.0144 21.815 54.1975 21.815 54.2891 21.7215L54.3806 22.0957C53.9229 22.3764 53.4651 22.3764 53.1905 22.3764C52.6412 22.3764 52.3665 22.0957 52.275 21.7215L52.1834 21.3472C51.3595 22.0022 50.444 22.3764 49.7116 22.3764C48.3384 22.3764 47.4229 21.6279 47.4229 20.318C47.4229 18.9144 48.4299 18.2595 49.8947 17.9788L51.451 17.6981C52.0003 17.6045 52.275 17.4174 52.275 17.0431C52.275 15.3589 51.5426 14.8911 50.3524 14.8911C49.4369 14.8911 48.7961 15.1718 48.2468 16.201H48.0637V15.1718ZM52.275 18.1659L51.2679 18.353C50.1693 18.5402 48.8876 18.9144 48.8876 20.1308C48.8876 21.0665 49.3454 21.5343 50.3524 21.5343C50.9933 21.5343 51.5426 21.3472 52.1834 20.5987V18.1659H52.275Z" fill="white"/>
<path d="M56.5779 14.3296C56.761 14.3296 57.0356 14.3296 57.3103 14.3296C57.2187 15.546 57.1272 17.5109 57.1272 17.6045C57.768 17.6045 58.6835 17.6981 59.2328 17.6981C59.7821 17.6981 60.6976 17.6981 61.1554 17.6045C61.1554 17.5109 61.1554 15.546 61.0638 14.3296C61.3385 14.3296 61.7046 14.3296 61.8877 14.3296C62.0708 14.3296 62.3455 14.3296 62.6202 14.3296C62.5286 15.546 62.4371 17.5109 62.4371 18.353C62.4371 19.008 62.4371 21.1601 62.6202 22.3764C62.3455 22.3764 62.1624 22.3764 61.8877 22.3764C61.6131 22.3764 61.3385 22.3764 61.0638 22.3764C61.1554 21.1601 61.1554 19.008 61.1554 18.5402C60.5145 18.4466 59.5075 18.4466 59.2328 18.4466C58.7751 18.4466 57.768 18.4466 57.1272 18.5402C57.1272 19.1016 57.1272 21.1601 57.3103 22.3764C57.0356 22.3764 56.8525 22.3764 56.5779 22.3764C56.3032 22.3764 56.0286 22.3764 55.7539 22.3764C55.8455 21.1601 55.937 19.008 55.937 18.353C55.937 17.5109 55.937 15.546 55.7539 14.3296C56.0286 14.2361 56.3948 14.3296 56.5779 14.3296Z" fill="white"/>
<path d="M65.4582 14.3296C65.6413 14.3296 65.916 14.3296 66.1906 14.3296C66.0991 15.546 66.0991 17.5109 66.0991 17.7916H66.3737C66.923 17.7916 69.4864 14.7975 69.7611 14.3296C69.9442 14.3296 70.3104 14.3296 70.4935 14.3296C70.6766 14.3296 71.0428 14.3296 71.2259 14.3296L67.5639 17.6981C68.0216 18.2595 70.4935 21.0665 71.5921 22.2829C71.1343 22.2829 70.8597 22.2829 70.6766 22.2829C70.4019 22.2829 69.9442 22.2829 69.6695 22.2829C69.1202 21.3472 67.3808 19.2887 66.3737 18.1659H66.0991C66.0991 18.7273 66.0991 21.0665 66.1906 22.2829C66.0075 22.2829 65.7329 22.2829 65.4582 22.2829C65.1836 22.2829 64.9089 22.2829 64.6343 22.2829C64.7258 21.0665 64.8174 18.9145 64.8174 18.2595C64.8174 17.4174 64.8174 15.4525 64.6343 14.2361C64.9089 14.2361 65.1836 14.3296 65.4582 14.3296Z" fill="white"/>
<path d="M78.2751 10.7741C78.8244 10.7741 79.4652 10.6805 79.923 10.6805C82.761 10.6805 83.8596 11.5226 83.8596 13.5811C83.8596 16.1074 81.754 16.9495 79.1906 16.9495C79.0075 16.9495 78.4582 16.9495 78.1835 16.856V19.5694C78.1835 20.318 78.1835 21.3472 78.2751 22.0957C78.0004 22.0957 77.7258 22.0957 77.4511 22.0957C77.1765 22.0957 76.8103 22.0957 76.6272 22.0957C76.7187 20.318 76.7188 17.9788 76.7188 16.0139C76.7188 14.2361 76.7187 11.5226 76.6272 10.6805C77.268 10.7741 77.9089 10.7741 78.2751 10.7741ZM78.9159 16.201C81.1131 16.201 82.3033 15.3589 82.3033 13.6747C82.3033 12.084 81.1131 11.7098 79.5568 11.7098C79.2821 11.7098 78.3666 11.7098 78.1835 11.7098V16.1074C78.4582 16.201 78.7328 16.201 78.9159 16.201Z" fill="white"/>
<path d="M91.916 18.1659C91.916 20.5987 90.3597 22.3764 87.9794 22.3764C85.5991 22.3764 84.1343 20.5987 84.1343 18.353C84.1343 15.7332 85.7822 14.049 88.1625 14.049C90.4512 14.049 91.916 15.8267 91.916 18.1659ZM85.5991 18.353C85.5991 20.1308 86.3315 21.815 87.9794 21.815C89.5357 21.815 90.4512 20.2244 90.4512 18.1659C90.4512 16.4817 89.8104 14.7039 88.0709 14.7039C86.423 14.7039 85.5991 16.4817 85.5991 18.353Z" fill="white"/>
<path d="M99.4231 16.0139H99.24C98.6907 15.0782 97.9583 14.7975 97.1344 14.7975C95.3034 14.7975 94.4795 16.5753 94.4795 18.353C94.4795 20.318 95.5781 21.9086 97.5006 21.9086C98.1415 21.9086 98.6908 21.815 99.6063 20.7858L99.7894 20.9729L99.6063 21.7215C98.8739 22.1893 98.0499 22.47 97.0429 22.47C94.6626 22.47 93.1062 20.7858 93.1062 18.353C93.1062 15.8267 94.8457 14.2361 97.3175 14.2361C98.1415 14.2361 98.9654 14.4232 99.9725 14.8911L99.4231 16.0139Z" fill="white"/>
<path d="M107.296 16.0139H107.113C106.564 15.0782 105.832 14.7975 105.008 14.7975C103.177 14.7975 102.353 16.5753 102.353 18.353C102.353 20.318 103.451 21.9086 105.374 21.9086C106.015 21.9086 106.564 21.815 107.48 20.7858L107.571 20.9729L107.296 21.6279C106.564 22.0957 105.74 22.3764 104.733 22.3764C102.353 22.3764 100.796 20.6922 100.796 18.2595C100.796 15.7332 102.536 14.1425 105.008 14.1425C105.832 14.1425 106.656 14.3296 107.663 14.7975L107.296 16.0139Z" fill="white"/>
<path d="M109.585 22.1893C109.494 22.1893 109.219 22.1893 109.127 22.1893C109.219 20.9729 109.311 18.8209 109.311 18.1659C109.311 17.3238 109.311 15.3589 109.127 14.1425C109.402 14.1425 109.768 14.1425 109.951 14.1425C110.134 14.1425 110.409 14.1425 110.684 14.1425C110.592 15.3589 110.501 17.3238 110.501 18.1659C110.501 18.8209 110.501 19.7566 110.501 20.2244C111.325 19.1951 114.346 15.2653 115.078 14.2361C115.261 14.2361 115.353 14.2361 115.536 14.2361C115.627 14.2361 115.994 14.2361 116.085 14.2361C115.994 15.4525 115.902 17.4174 115.902 18.2595C115.902 18.9144 115.902 21.0665 116.085 22.2829C115.811 22.2829 115.627 22.2829 115.353 22.2829C115.078 22.2829 114.804 22.2829 114.529 22.2829C114.62 21.0665 114.712 18.9144 114.712 18.2595C114.712 17.4174 114.712 16.3881 114.712 16.1074C113.705 17.2302 110.867 20.8794 110.043 22.2829C109.86 22.1893 109.677 22.1893 109.585 22.1893Z" fill="white"/>
<path d="M118.282 22.1893C118.191 22.1893 117.916 22.1893 117.825 22.1893C117.916 20.9729 117.916 18.8209 117.916 18.1659C117.916 17.3238 117.916 15.3589 117.825 14.1425C118.099 14.1425 118.466 14.1425 118.649 14.1425C118.832 14.1425 119.106 14.1425 119.381 14.1425C119.29 15.3589 119.198 17.3238 119.198 18.1659C119.198 18.8209 119.198 19.7566 119.198 20.2244C120.022 19.1951 123.043 15.2653 123.775 14.2361C123.959 14.2361 124.05 14.2361 124.233 14.2361C124.325 14.2361 124.691 14.2361 124.783 14.2361C124.691 15.4525 124.691 17.4174 124.691 18.2595C124.691 18.9144 124.691 21.0665 124.783 22.2829C124.508 22.2829 124.325 22.2829 124.05 22.2829C123.775 22.2829 123.501 22.2829 123.226 22.2829C123.318 21.0665 123.318 18.9144 123.318 18.2595C123.318 17.4174 123.318 16.3881 123.318 16.1074C122.311 17.2302 119.473 20.8794 118.649 22.2829C118.557 22.1893 118.466 22.1893 118.282 22.1893Z" fill="white"/>
</svg>
