<svg width="305" height="43" viewBox="0 0 305 43" fill="none" xmlns="http://www.w3.org/2000/svg">
<path d="M41.1995 9.84268H46.8503V33.5688C46.8503 39.2555 45.2011 43 39.3131 43C36.6251 42.9962 34.0274 42.0229 31.9913 40.2568L33.1035 36.0816C33.6787 36.7263 35.4941 38.3283 38.0647 38.3612C39.8529 38.3832 41.1995 37.1158 41.1995 35.1242V9.84268Z" fill="black"/>
<path d="M74.6138 22.9882H56.1511C56.1511 26.8287 58.8362 29.7173 63.83 29.7173C67.1202 29.7173 70.1705 28.3841 71.7952 26.8315L73.1091 30.9024C70.6121 33.1793 67.033 34.3644 63.1213 34.3644C56.1048 34.3644 50.4049 29.1522 50.4049 22.1351C50.4049 15.0247 55.8704 9.24194 62.6988 9.24194C70.2823 9.24194 74.7555 14.3142 74.7555 21.3286C74.7538 21.8848 74.7063 22.4399 74.6138 22.9882ZM62.6988 13.8862C59.4495 13.8862 56.9062 15.9738 56.1048 19.2904H69.4345C68.8212 16.2097 66.5151 13.8862 62.6988 13.8862Z" fill="black"/>
<path d="M87.1475 25.309C87.1475 28.2964 88.7967 29.3388 90.634 29.3388C91.9935 29.3469 93.3401 29.0724 94.5893 28.5323V32.9873C92.9891 33.7005 90.8684 33.9831 88.9384 33.9831C84.746 33.9831 81.543 31.9448 81.543 25.9728V14.6461H76.8817V9.95243H81.4558L82.9333 4.40839H87.1475V9.95243H94.5429V14.6461H87.1475V25.309Z" fill="black"/>
<path d="M104.307 0V33.6511H98.6918V0H104.307Z" fill="black"/>
<path d="M154.84 20.2861C154.84 16.8735 153.205 14.7393 150.367 14.7393C148.246 14.7393 144.809 16.2097 143.206 19.3863V33.6511H137.602V9.95239H143.206V13.5186C145.278 10.8165 148.53 9.34888 152.013 9.34888C156.866 9.34888 160.445 12.7614 160.445 18.8761V33.6621H154.84V20.2861Z" fill="black"/>
<path d="M183.528 33.6511V30.5705C182.653 31.7396 181.523 32.6901 180.224 33.3481C178.926 34.0061 177.494 34.3539 176.04 34.3643C169.162 34.3643 164.547 28.7215 164.547 21.8031C164.547 14.9313 169.162 9.24191 176.04 9.24191C177.497 9.26115 178.93 9.61754 180.229 10.2835C181.527 10.9495 182.656 11.9071 183.528 13.0824V0H189.132V33.6511H183.528ZM183.528 26.2115V17.4332C182.852 16.5282 181.977 15.7924 180.973 15.2828C179.968 14.7733 178.86 14.5037 177.735 14.4952C173.78 14.4952 170.531 17.8611 170.531 21.7949C170.51 23.3291 170.973 24.8303 171.854 26.0826C172.736 27.3348 173.989 28.2735 175.433 28.7636C176.878 29.2536 178.44 29.2698 179.895 28.8097C181.349 28.3496 182.621 27.437 183.528 26.2032V26.2115Z" fill="black"/>
<path d="M133.076 22.9882H114.614C114.614 26.8287 117.296 29.7173 122.29 29.7173C125.58 29.7173 128.633 28.3841 130.255 26.8315L131.566 30.9024C129.069 33.1793 125.49 34.3644 121.581 34.3644C114.562 34.3644 108.865 29.1522 108.865 22.1351C108.865 15.0247 114.317 9.24194 121.156 9.24194C128.74 9.24194 133.213 14.3142 133.213 21.3286C133.211 21.8846 133.166 22.4396 133.076 22.9882ZM121.159 13.8862C117.909 13.8862 115.366 15.9738 114.565 19.2904H127.894C127.281 16.2097 124.975 13.8862 121.159 13.8862Z" fill="black"/>
<path d="M33.8668 0.0877991L0 9.95242L14.1311 24.1733L24.7404 34.3643L33.8668 0.0877991Z" fill="#0BD194"/>
<path d="M199.185 11.933V17.916L203.68 11.933H204.455V18.8926H203.721V12.9343L199.24 18.9063H198.452V11.933H199.185Z" fill="black"/>
<path d="M211.894 15.6199H207.399V18.8926H206.665V11.933H207.399V14.9506H211.894V11.933H212.624V18.8926H211.894V15.6199Z" fill="black"/>
<path d="M220.022 13.6174C220.02 13.9327 219.932 14.2413 219.766 14.5089C219.597 14.7963 219.363 15.039 219.082 15.2167C219.442 15.3522 219.753 15.5953 219.973 15.9134C220.188 16.218 220.302 16.5826 220.3 16.9559C220.303 17.2132 220.253 17.4683 220.156 17.7061C220.058 17.9439 219.914 18.1595 219.732 18.3402C219.55 18.5208 219.334 18.6628 219.096 18.7577C218.858 18.8526 218.604 18.8985 218.349 18.8926H214.838V11.933H218.185C218.668 11.9185 219.139 12.0936 219.496 12.4213C219.665 12.5704 219.799 12.7546 219.89 12.9611C219.981 13.1676 220.026 13.3915 220.022 13.6174ZM219.289 13.7024C219.294 13.5486 219.263 13.3958 219.198 13.2565C219.134 13.1172 219.036 12.9954 218.915 12.9014C218.656 12.698 218.334 12.5923 218.005 12.6024H215.571V14.9396H218.005C218.341 14.9448 218.666 14.8178 218.91 14.5857C219.032 14.4744 219.13 14.338 219.195 14.1856C219.26 14.0331 219.292 13.8684 219.289 13.7024ZM215.571 18.2232H218.141C218.503 18.2367 218.856 18.1123 219.131 17.8748C219.261 17.7586 219.365 17.6146 219.433 17.4533C219.501 17.292 219.533 17.1174 219.526 16.9421C219.531 16.7631 219.498 16.5851 219.43 16.4196C219.362 16.2542 219.26 16.1051 219.131 15.982C218.864 15.7297 218.508 15.5945 218.141 15.6062H215.571V18.2232Z" fill="black"/>
<path d="M228.484 15.1289V15.2825H222.151C222.146 15.3839 222.146 15.4856 222.151 15.587C222.139 15.9701 222.211 16.3513 222.363 16.7028C222.514 17.0544 222.742 17.3676 223.029 17.6197C223.633 18.1459 224.411 18.4241 225.21 18.3988C225.653 18.3937 226.091 18.3063 226.502 18.1409C226.91 17.9916 227.281 17.7569 227.592 17.4524L228.102 17.9818C227.729 18.3485 227.282 18.6293 226.791 18.8048C226.282 18.9982 225.743 19.0994 225.199 19.1038C224.209 19.1319 223.245 18.7809 222.503 18.1217C222.147 17.8074 221.865 17.418 221.677 16.9812C221.488 16.5445 221.398 16.0712 221.413 15.5952C221.388 14.5816 221.755 13.598 222.437 12.852C222.75 12.4913 223.137 12.2035 223.572 12.0088C224.006 11.8141 224.478 11.7171 224.953 11.7245C226.087 11.7245 226.961 12.0656 227.573 12.7477C228.168 13.3951 228.494 14.2472 228.484 15.1289ZM227.709 14.6131C227.615 14.0052 227.309 13.451 226.845 13.0495C226.311 12.6046 225.63 12.3784 224.937 12.4158C224.314 12.4044 223.707 12.6185 223.228 13.0193C222.741 13.4311 222.4 13.9902 222.255 14.6131H227.709Z" fill="black"/>
<path d="M230.994 13.2772C230.481 13.8689 230.198 14.6275 230.198 15.4128C230.198 16.1981 230.481 16.9567 230.994 17.5484C231.256 17.8304 231.574 18.0526 231.928 18.2003C232.282 18.3479 232.664 18.4175 233.047 18.4043C233.452 18.4031 233.852 18.3185 234.223 18.1557C234.595 17.993 234.929 17.7555 235.206 17.4579L235.715 17.9873C235.37 18.3463 234.954 18.6304 234.495 18.8219C234.037 19.0134 233.543 19.1084 233.047 19.1011C232.567 19.1099 232.091 19.0151 231.651 18.823C231.211 18.6308 230.817 18.3459 230.495 17.9873C229.836 17.2944 229.468 16.3721 229.468 15.4128C229.468 14.4535 229.836 13.5312 230.495 12.8383C230.817 12.4797 231.211 12.1948 231.651 12.0026C232.091 11.8105 232.567 11.7157 233.047 11.7245C233.543 11.7172 234.037 11.8122 234.495 12.0037C234.954 12.1952 235.37 12.4793 235.715 12.8383L235.206 13.3677C234.929 13.0701 234.595 12.8326 234.223 12.6699C233.852 12.5071 233.452 12.4225 233.047 12.4213C232.664 12.4081 232.282 12.4777 231.928 12.6253C231.574 12.773 231.256 12.9952 230.994 13.2772Z" fill="black"/>
<path d="M242.339 11.933V12.6024H239.739V18.8926H239.006V12.6024H236.408V11.933H242.339Z" fill="black"/>
<path d="M244.247 11.933V17.916L248.74 11.933H249.514V18.8926H248.781V12.9343L244.299 18.9063H243.511V11.933H244.247Z" fill="black"/>
<path d="M252.461 18.2232H256.997V11.933H257.727V18.2232H258.738V20.854H258.005V18.8926H251.736V11.933H252.469L252.461 18.2232Z" fill="black"/>
<path d="M260.949 11.933V17.916L265.444 11.933H266.227V18.8926H265.493V12.9343L261.015 18.9063H260.229V11.933H260.949Z" fill="black"/>
<path d="M274.333 18.0367C273.584 18.7216 272.609 19.1011 271.597 19.1011C270.585 19.1011 269.609 18.7216 268.86 18.0367C268.185 17.3321 267.807 16.3915 267.807 15.4128C267.807 14.4341 268.185 13.4935 268.86 12.7889C269.609 12.104 270.585 11.7245 271.597 11.7245C272.609 11.7245 273.584 12.104 274.333 12.7889C275.008 13.4935 275.386 14.4341 275.386 15.4128C275.386 16.3915 275.008 17.3321 274.333 18.0367ZM271.608 18.5168C272.014 18.5267 272.417 18.4513 272.793 18.2954C273.168 18.1395 273.507 17.9066 273.788 17.6115C274.351 17.0214 274.666 16.235 274.666 15.4169C274.666 14.5988 274.351 13.8124 273.788 13.2223C273.503 12.9327 273.163 12.7028 272.789 12.546C272.414 12.3891 272.013 12.3083 271.608 12.3083C271.202 12.3083 270.801 12.3891 270.426 12.546C270.052 12.7028 269.712 12.9327 269.427 13.2223C268.867 13.814 268.554 14.5998 268.554 15.4169C268.554 16.234 268.867 17.0198 269.427 17.6115C269.706 17.9056 270.043 18.138 270.417 18.2939C270.791 18.4497 271.192 18.5256 271.597 18.5168H271.608Z" fill="black"/>
<path d="M282.203 15.6199H277.708V18.8926H276.975V11.933H277.708V14.9506H282.203V11.933H282.934V18.8926H282.203V15.6199Z" fill="black"/>
<path d="M290.373 15.6199H285.88V18.8926H285.147V11.933H285.88V14.9506H290.373V11.933H291.106V18.8926H290.373V15.6199Z" fill="black"/>
<path d="M294.99 19.1011C294.382 19.1342 293.784 18.9387 293.311 18.5524C293.109 18.3744 292.949 18.1532 292.842 17.9051C292.736 17.6569 292.685 17.3879 292.695 17.1177C292.683 16.8429 292.736 16.5692 292.849 16.3189C292.962 16.0686 293.133 15.8488 293.347 15.6775C293.806 15.3203 294.348 15.0879 294.922 15.0027C295.844 14.8839 296.773 14.8235 297.703 14.8216V14.1139C297.703 13.4555 297.536 13.0029 297.204 12.756C296.793 12.4892 296.309 12.3605 295.822 12.3884C295.409 12.3887 295.001 12.474 294.623 12.6391C294.245 12.8043 293.904 13.0457 293.622 13.3485L293.153 12.8465C293.521 12.4786 293.96 12.1892 294.441 11.9954C294.923 11.8017 295.439 11.7077 295.958 11.7191C296.368 11.7093 296.776 11.7753 297.163 11.9138C297.436 12.0095 297.687 12.1587 297.902 12.3527C298.074 12.5336 298.202 12.7525 298.275 12.9919C298.347 13.1875 298.395 13.391 298.419 13.5982C298.419 13.7381 298.433 13.9081 298.433 14.1139V18.8871H297.703V17.5347C296.89 18.5789 295.986 19.1011 294.99 19.1011ZM294.99 18.4317C296.032 18.4317 296.94 17.8428 297.716 16.6651V15.4965C296.828 15.4909 295.941 15.5468 295.061 15.6638C294.917 15.6855 294.776 15.7203 294.639 15.768C294.459 15.8302 294.286 15.9092 294.121 16.004C293.925 16.1133 293.759 16.2686 293.636 16.4566C293.506 16.6543 293.439 16.8865 293.442 17.1232C293.426 17.3204 293.463 17.5183 293.549 17.696C293.636 17.8737 293.768 18.0246 293.933 18.1327C294.252 18.3248 294.618 18.4245 294.99 18.4207V18.4317Z" fill="black"/>
<path d="M304.269 16.1905H302.65L300.758 18.8926H299.818L301.781 16.1905C301.506 16.1763 301.236 16.1062 300.989 15.9846C300.742 15.863 300.521 15.6923 300.341 15.4827C300.001 15.0888 299.815 14.5837 299.818 14.0617C299.815 13.5101 300.025 12.979 300.404 12.5804C300.608 12.3629 300.857 12.1925 301.132 12.0807C301.408 11.969 301.704 11.9186 302.001 11.933H305V18.8926H304.267L304.269 16.1905ZM304.269 12.6024H301.988C301.8 12.5972 301.613 12.6294 301.437 12.6972C301.262 12.765 301.102 12.867 300.966 12.9974C300.697 13.286 300.548 13.6665 300.548 14.0617C300.548 14.457 300.697 14.8375 300.966 15.1261C301.101 15.2574 301.261 15.3602 301.437 15.4284C301.612 15.4967 301.8 15.5292 301.988 15.5239H304.269V12.6024Z" fill="black"/>
<path d="M203.721 27.424H199.185V33.7142H198.452V26.7574H204.449V33.7142H203.721V27.424Z" fill="black"/>
<path d="M205.711 33.7142V33.0448H206.156C206.616 33.0448 206.946 32.7897 207.15 32.2795C207.355 31.7692 207.453 30.853 207.453 29.5363V26.7574H212.39V33.7142H211.656V27.424H208.165V29.5253C208.165 32.3179 207.488 33.7142 206.134 33.7142H205.711Z" fill="black"/>
<path d="M216.263 33.9227C215.654 33.9565 215.055 33.7609 214.581 33.374C214.38 33.1962 214.22 32.9754 214.114 32.7277C214.008 32.48 213.958 32.2116 213.968 31.9421C213.955 31.6675 214.007 31.3936 214.12 31.1432C214.233 30.8928 214.403 30.673 214.617 30.5019C215.075 30.143 215.618 29.9104 216.192 29.827C217.114 29.7055 218.043 29.645 218.973 29.646V28.9355C218.973 28.2771 218.807 27.8199 218.474 27.5639C218.064 27.2971 217.58 27.1684 217.092 27.1963C216.68 27.1974 216.272 27.2831 215.894 27.4482C215.515 27.6133 215.175 27.8543 214.892 28.1564L214.423 27.6544C214.792 27.2864 215.231 26.9969 215.713 26.8032C216.196 26.6095 216.712 26.5156 217.231 26.527C217.64 26.5174 218.048 26.5834 218.433 26.7217C218.706 26.8169 218.957 26.9661 219.172 27.1606C219.345 27.3421 219.473 27.562 219.545 27.8026C219.617 27.9973 219.666 28.1998 219.69 28.4061C219.69 28.546 219.706 28.7188 219.706 28.9218V33.695H218.973V32.3453C218.16 33.3951 217.257 33.9209 216.263 33.9227ZM216.263 33.2533C217.305 33.2533 218.208 32.6645 218.973 31.4867V30.3181C218.085 30.3125 217.198 30.3684 216.318 30.4854C216.174 30.5071 216.033 30.542 215.895 30.5897C215.716 30.653 215.543 30.732 215.377 30.8256C215.182 30.9349 215.015 31.0902 214.892 31.2782C214.762 31.4767 214.695 31.7099 214.699 31.9476C214.681 32.1445 214.718 32.3425 214.804 32.52C214.891 32.6975 215.024 32.8477 215.189 32.9543C215.512 33.1531 215.884 33.2567 216.263 33.2533Z" fill="black"/>
<path d="M226.605 26.7574V27.424H224.005V33.7142H223.272V27.424H220.674V26.7574H226.605Z" fill="black"/>
<path d="M231.929 33.9227H231.512V36.5534H230.79V33.9227H230.372C229.894 33.9275 229.42 33.8325 228.98 33.6436C228.54 33.4548 228.143 33.1762 227.816 32.8254C227.13 32.1333 226.746 31.1963 226.746 30.2193C226.746 29.2424 227.13 28.3053 227.816 27.6133C228.143 27.2625 228.54 26.9839 228.98 26.795C229.42 26.6062 229.894 26.5112 230.372 26.516H230.79V23.8029H231.52V26.516H231.937C232.416 26.5112 232.89 26.6062 233.33 26.795C233.77 26.9839 234.166 27.2625 234.494 27.6133C235.179 28.3053 235.564 29.2424 235.564 30.2193C235.564 31.1963 235.179 32.1333 234.494 32.8254C234.165 33.1772 233.768 33.4564 233.326 33.6453C232.885 33.8342 232.409 33.9287 231.929 33.9227ZM230.531 27.1744C229.724 27.1744 228.95 27.4969 228.379 28.071C227.809 28.6452 227.488 29.4239 227.488 30.2358C227.488 31.0477 227.809 31.8264 228.379 32.4006C228.95 32.9747 229.724 33.2972 230.531 33.2972H230.781V27.1744H230.531ZM231.763 33.2972C232.566 33.2907 233.335 32.9657 233.902 32.3926C234.469 31.8195 234.788 31.0445 234.791 30.2358C234.796 29.8337 234.719 29.435 234.565 29.0638C234.411 28.6926 234.184 28.3569 233.897 28.0769C233.622 27.7873 233.29 27.5577 232.923 27.4025C232.556 27.2472 232.161 27.1696 231.763 27.1744H231.512V33.2972H231.763Z" fill="black"/>
<path d="M243.056 32.8583C242.307 33.5434 241.331 33.923 240.318 33.923C239.306 33.923 238.329 33.5434 237.58 32.8583C236.907 32.1528 236.531 31.2126 236.531 30.2344C236.531 29.2563 236.907 28.3161 237.58 27.6105C238.329 26.9255 239.306 26.5459 240.318 26.5459C241.331 26.5459 242.307 26.9255 243.056 27.6105C243.729 28.3161 244.105 29.2563 244.105 30.2344C244.105 31.2126 243.729 32.1528 243.056 32.8583ZM240.33 33.3384C240.736 33.3483 241.14 33.2729 241.516 33.117C241.891 32.9612 242.23 32.7282 242.511 32.4331C243.074 31.843 243.389 31.0566 243.389 30.2385C243.389 29.4204 243.074 28.634 242.511 28.044C242.226 27.7543 241.886 27.5245 241.511 27.3676C241.137 27.2107 240.736 27.1299 240.33 27.1299C239.925 27.1299 239.523 27.2107 239.149 27.3676C238.775 27.5245 238.435 27.7543 238.15 28.044C237.59 28.6357 237.277 29.4214 237.277 30.2385C237.277 31.0556 237.59 31.8414 238.15 32.4331C238.428 32.7255 238.763 32.9569 239.134 33.1127C239.505 33.2685 239.904 33.3454 240.306 33.3384H240.33Z" fill="black"/>
<path d="M249.031 33.9227C248.543 33.9303 248.058 33.8351 247.608 33.6433C247.158 33.4515 246.752 33.1674 246.417 32.809V36.5534H245.687V26.7574H246.417V27.6736C246.75 27.3119 247.155 27.0246 247.605 26.8304C248.056 26.6362 248.542 26.5393 249.031 26.5462C249.51 26.5413 249.984 26.6364 250.424 26.8252C250.864 27.0141 251.261 27.2927 251.588 27.6435C252.274 28.3355 252.658 29.2726 252.658 30.2495C252.658 31.2264 252.274 32.1635 251.588 32.8556C251.258 33.2009 250.86 33.4739 250.421 33.6575C249.981 33.8411 249.508 33.9314 249.031 33.9227ZM248.865 27.1744C248.39 27.1743 247.922 27.291 247.502 27.5145C247.083 27.7353 246.717 28.0462 246.431 28.4253V32.0436C246.707 32.4323 247.073 32.7477 247.497 32.9626C247.924 33.184 248.398 33.2988 248.879 33.2972C249.683 33.2922 250.452 32.9676 251.02 32.3941C251.587 31.8207 251.906 31.0449 251.907 30.2358C251.912 29.8339 251.836 29.4352 251.682 29.064C251.529 28.6929 251.302 28.357 251.016 28.0769C250.739 27.7854 250.404 27.5547 250.034 27.3994C249.664 27.2441 249.266 27.1675 248.865 27.1744Z" fill="black"/>
<path d="M257.73 30.7213L260.426 26.7574H261.214V33.7142H260.48V27.9534L257.937 31.6403H257.504L254.974 27.9534V33.7142H254.233V26.7574H255.02L257.73 30.7213Z" fill="black"/>
<path d="M265.098 33.9227C264.49 33.9559 263.891 33.7603 263.419 33.3741C263.216 33.1968 263.056 32.9762 262.949 32.7284C262.843 32.4806 262.793 32.2119 262.803 31.9421C262.79 31.6675 262.842 31.3936 262.954 31.1432C263.067 30.8928 263.238 30.673 263.452 30.5019C263.91 30.1425 264.454 29.9099 265.03 29.8271C265.951 29.7054 266.879 29.6449 267.808 29.646V28.9355C267.808 28.2771 267.642 27.8199 267.311 27.5639C266.9 27.2968 266.415 27.168 265.927 27.1963C265.515 27.1971 265.107 27.2827 264.73 27.4478C264.352 27.6129 264.011 27.8541 263.73 28.1564L263.258 27.6544C263.627 27.2864 264.066 26.997 264.548 26.8033C265.03 26.6095 265.546 26.5156 266.066 26.527C266.475 26.5169 266.882 26.5829 267.268 26.7217C267.541 26.8171 267.794 26.9663 268.009 27.1607C268.182 27.3421 268.31 27.562 268.383 27.8026C268.454 27.9973 268.503 28.1999 268.527 28.4061C268.527 28.546 268.527 28.7188 268.527 28.9218V33.695H267.794V32.3454C266.993 33.3951 266.094 33.9209 265.098 33.9227ZM265.098 33.2534C266.139 33.2534 267.043 32.6645 267.808 31.4867V30.3181C266.92 30.3126 266.033 30.3685 265.153 30.4854C265.01 30.5071 264.869 30.542 264.733 30.5897C264.553 30.653 264.378 30.7319 264.212 30.8256C264.017 30.9345 263.851 31.0899 263.73 31.2782C263.599 31.4762 263.531 31.7098 263.536 31.9476C263.519 32.1445 263.555 32.3425 263.641 32.52C263.728 32.6975 263.861 32.8477 264.027 32.9543C264.349 33.1528 264.72 33.2563 265.098 33.2534Z" fill="black"/>
</svg>
