<svg width="46" height="32" viewBox="0 0 46 32" fill="none" xmlns="http://www.w3.org/2000/svg">
<g clip-path="url(#clip0)">
<path d="M45.3333 0H0V32H45.3333V0Z" fill="#CBDB2A"/>
<path d="M11.2956 20.8394C12.0723 20.8394 13.9819 20.7062 15.4114 19.6722V20.4557H18.2919L18.2973 17.018L19.5002 15.7868L22.1164 20.4557H25.5742L21.604 13.7828L25.4717 9.57762H21.933L18.2919 13.7029V5.77748H15.406V7.02998C14.5267 6.09727 13.1026 5.39374 10.8856 5.39374C6.0793 5.39374 5.17307 8.28248 5.17307 9.90273C5.17307 12.1253 6.38138 13.3618 8.49054 13.8628L11.479 14.5876C13.0541 14.9714 14.1815 15.2538 14.1815 16.4051C14.1815 17.94 12.5416 18.3078 11.069 18.3078C8.36647 18.3078 7.91875 16.7515 7.91875 15.9254H4.9519C4.9519 17.7482 5.8905 20.8394 11.2956 20.8394ZM13.2591 12.0879L9.63951 11.2192C9.02457 11.0753 8.06439 10.8354 8.06439 9.68421C8.06439 8.36776 9.47769 7.92538 10.6644 7.92538C13.3669 7.92538 13.6097 9.48168 13.6906 10.1479H15.4114V12.8821C14.7802 12.5143 14.0304 12.2798 13.2591 12.0879Z" fill="#656868"/>
<path d="M7.43864 27.2512C7.14196 27.2512 6.9154 27.2245 6.75357 27.1766V26.3025C6.87225 26.3558 6.99092 26.3824 7.1042 26.3824C7.31997 26.3824 7.4764 26.2918 7.5735 26.0999L7.59508 26.0573L5.52368 22.2678H6.75897L8.09135 25.0127L9.10007 22.2732H10.2868L8.49592 26.3558C8.415 26.5476 8.30172 26.7129 8.17226 26.8461C8.03741 26.9793 7.90255 27.0806 7.76769 27.1499C7.63284 27.2139 7.52495 27.2512 7.43864 27.2512Z" fill="#656868"/>
<path d="M13.4102 27.1765H12.4446V25.6789C12.3475 25.7322 12.1965 25.8015 11.9861 25.8867C11.7757 25.972 11.5654 26.0147 11.355 26.0147C10.9666 26.0147 10.6645 25.9134 10.438 25.7109C10.2114 25.5083 10.1035 25.1885 10.1035 24.7462V23.547H11.0691V24.7195C11.0691 25.0446 11.2795 25.2099 11.7002 25.2099C11.8297 25.2099 11.9699 25.1832 12.1156 25.1246C12.2666 25.066 12.3745 25.0233 12.4446 24.986V23.547H13.4102V27.1765Z" fill="#656868"/>
<path d="M17.4828 26.4624C17.4828 26.6596 17.499 26.7981 17.5368 26.8728C17.5745 26.9527 17.6285 27.0007 17.6986 27.0273V27.1712H16.6521C16.609 27.0326 16.5766 26.8887 16.5658 26.7395C16.4094 26.8994 16.2422 27.0273 16.0696 27.1233C15.8969 27.2192 15.665 27.2672 15.3737 27.2672C15.1795 27.2672 14.9961 27.2299 14.8289 27.1552C14.6563 27.0806 14.5214 26.9634 14.4135 26.8035C14.311 26.6436 14.2571 26.4464 14.2571 26.2119C14.2571 25.9827 14.3002 25.7855 14.3919 25.6256C14.4836 25.4604 14.6077 25.3325 14.7641 25.2418C14.9206 25.1512 15.1094 25.0873 15.3251 25.0553L16.1936 24.9274C16.4202 24.8954 16.5335 24.7995 16.5335 24.6396C16.5335 24.4637 16.4741 24.3464 16.3501 24.2931C16.226 24.2398 16.0749 24.2132 15.8969 24.2132C15.6812 24.2132 15.5355 24.2612 15.4546 24.3571C15.3737 24.453 15.3197 24.5756 15.3036 24.7195H14.3704C14.4027 24.3678 14.4998 24.1013 14.6616 23.9147C14.8181 23.7282 15.0123 23.6056 15.2334 23.5416C15.46 23.4777 15.7189 23.4457 16.0156 23.4457C16.2314 23.4457 16.4525 23.4724 16.6737 23.531C16.8949 23.5896 17.0837 23.6962 17.2455 23.8508C17.4073 24.0053 17.4882 24.2239 17.4882 24.4957V26.4624H17.4828ZM16.5335 25.4071C16.4256 25.487 16.2098 25.5563 15.8754 25.6043C15.7351 25.6256 15.6218 25.6576 15.5301 25.6949C15.4384 25.7322 15.3629 25.7855 15.3036 25.8548C15.2496 25.9241 15.2173 26.0253 15.2173 26.1532C15.2173 26.3025 15.2658 26.4144 15.3575 26.4837C15.4492 26.553 15.5517 26.5903 15.6704 26.5903C15.816 26.5903 15.9563 26.5583 16.0857 26.4997C16.2206 26.441 16.3285 26.3558 16.4094 26.2492C16.4903 26.1426 16.5335 26.0147 16.5335 25.8708V25.4071Z" fill="#656868"/>
<path d="M21.4854 25.8494C21.4746 25.972 21.4423 26.1053 21.3883 26.2598C21.3344 26.4144 21.2481 26.569 21.124 26.7235C20.9999 26.8781 20.8273 27.0113 20.6116 27.1126C20.3904 27.2192 20.1261 27.2672 19.8132 27.2672C19.4842 27.2672 19.209 27.2139 18.9879 27.1019C18.7613 26.99 18.5887 26.8461 18.4646 26.6702C18.3406 26.4943 18.2489 26.2971 18.1949 26.0893C18.141 25.8814 18.114 25.6682 18.114 25.455C18.114 25.0553 18.1733 24.6982 18.2974 24.3997C18.4215 24.0959 18.6157 23.8614 18.8746 23.6962C19.1389 23.5257 19.468 23.4457 19.8725 23.4457C20.1045 23.4457 20.3364 23.4883 20.5738 23.5683C20.8111 23.6482 21.0161 23.7921 21.1887 24C21.3667 24.2079 21.4692 24.485 21.4962 24.8368H20.5145C20.4443 24.4477 20.2286 24.2505 19.8725 24.2505C19.6837 24.2505 19.5327 24.3038 19.4194 24.4104C19.3061 24.517 19.2252 24.6502 19.1767 24.8048C19.1281 24.9647 19.1066 25.1299 19.1066 25.3005C19.1066 25.4977 19.1227 25.6789 19.1497 25.8441C19.1767 26.0093 19.2468 26.1586 19.3547 26.2865C19.468 26.4144 19.6298 26.4837 19.851 26.4837C19.9966 26.4837 20.1207 26.4464 20.2232 26.3718C20.3203 26.2971 20.3958 26.2065 20.4389 26.1053C20.4875 26.004 20.5091 25.9187 20.5091 25.8494H21.4854Z" fill="#656868"/>
<path d="M22.9525 27.1766V24.3091H21.8521V23.5416H25.0185V24.3091H23.9181V27.1766H22.9525Z" fill="#656868"/>
<path d="M28.8484 27.1765H27.8829V25.7428H26.5073V27.1765H25.5417V23.547H26.5073V24.9807H27.8829V23.547H28.8484V27.1765Z" fill="#656868"/>
<path d="M33.0237 27.1765H32.0581V24.9913L30.7527 27.1765H29.717V23.547H30.6826V25.7322L31.988 23.547H33.0237V27.1765Z" fill="#656868"/>
<path d="M34.8577 27.1765H33.8921V23.547H34.8577V24.9274L36.0714 23.547H37.2797L35.9581 24.954L37.3336 27.1765H36.1577L35.2514 25.6203L34.8523 26.0306V27.1765H34.8577Z" fill="#656868"/>
</g>
<defs>
<clipPath id="clip0">
<rect width="45.3333" height="32" fill="white"/>
</clipPath>
</defs>
</svg>
